<svg version="1.1" xmlns="http://www.w3.org/2000/svg" xmlns:xlink="http://www.w3.org/1999/xlink" width="72.00339" height="61.05438" viewBox="0,0,72.00339,61.05438"><defs><linearGradient x1="223.82527" y1="187.79669" x2="206.46413" y2="204.2373" gradientUnits="userSpaceOnUse" id="color-1"><stop offset="0" stop-color="#ac795b"/><stop offset="1" stop-color="#d4aa91"/></linearGradient><linearGradient x1="237.62248" y1="160.1913" x2="248.89094" y2="183.5365" gradientUnits="userSpaceOnUse" id="color-2"><stop offset="0" stop-color="#bf876b"/><stop offset="1" stop-color="#d9b3a3"/></linearGradient><linearGradient x1="218.16745" y1="189.64868" x2="249.80317" y2="174.64678" gradientUnits="userSpaceOnUse" id="color-3"><stop offset="0" stop-color="#eadeda"/><stop offset="1" stop-color="#eadeda" stop-opacity="0"/></linearGradient></defs><g transform="translate(-199.9361,-153.50553)"><g data-paper-data="{&quot;isPaintingLayer&quot;:true}" fill-rule="nonzero" stroke-linejoin="miter" stroke-miterlimit="10" stroke-dasharray="" stroke-dashoffset="0" style="mix-blend-mode: normal"><g><path d="M251.79653,180.75086c0,0 0.44019,7.06624 -3.89976,8.01313c-4.33996,0.9469 -21.40843,-2.49133 -21.40843,-2.49133" data-paper-data="{&quot;index&quot;:null}" fill="#d4aa91" stroke="#000000" stroke-width="0" stroke-linecap="round"/><path d="M228.23929,191.78951c0,0 -5.05122,19.71211 -8.4499,22.60364c-1.87872,1.59837 -18.73439,-8.55487 -19.84885,-19.23318c-0.38446,-3.68377 24.31197,-7.09171 24.31197,-7.09171" fill="url(#color-1)" stroke="#0564b2" stroke-width="0" stroke-linecap="round"/><path d="M223.47779,188.25941c0,0 -3.19568,-4.06552 -4.35755,-5.6081c-1.48954,-1.97762 11.27944,-7.46008 11.27944,-7.46008" data-paper-data="{&quot;index&quot;:null}" fill="#cb997c" stroke="#000000" stroke-width="0" stroke-linecap="round"/><path d="M242.78812,186.13738c0,0 -6.41598,12.0021 -8.36901,10.44686c-1.52338,-1.2131 -5.5304,-4.53919 -5.5304,-4.53919" data-paper-data="{&quot;index&quot;:null}" fill="#bd8f74" stroke="#000000" stroke-width="0" stroke-linecap="round"/><path d="M227.94976,179.21983c0,0 -3.39613,-2.40718 -2.10869,-4.59824c1.28743,-2.19106 9.61628,-8.17878 9.61628,-8.17878" data-paper-data="{&quot;index&quot;:null}" fill="#cca48e" stroke="#000000" stroke-width="0" stroke-linecap="round"/><path d="M233.21473,171.20435c0,0 -3.55332,-3.2776 -1.73734,-5.64459c1.81598,-2.36697 12.32712,-8.15829 12.32712,-8.15829" data-paper-data="{&quot;index&quot;:null}" fill="#deb7a0" stroke="#000000" stroke-width="0" stroke-linecap="round"/><path d="M261.72314,175.71214c-9.81396,7.92539 -43.56302,21.58156 -43.56302,21.58156c0,0 14.74633,-30.69437 23.11515,-38.20202c8.50352,-7.62847 30.66422,-5.22803 30.66422,-5.22803c0,0 -2.7595,15.82664 -10.21633,21.84849z" fill="url(#color-2)" stroke="#000000" stroke-width="0" stroke-linecap="round"/><path d="M257.0954,159.84451c0.44982,0.9319 -0.00165,2.0743 -1.00833,2.55168c-1.00671,0.47739 -2.18746,0.10893 -2.63725,-0.82292c-0.44982,-0.9319 0.00168,-2.07431 1.00836,-2.55169c1.00671,-0.47739 2.18739,-0.10897 2.63721,0.82293z" fill="#a46d4e" stroke="#000000" stroke-width="0" stroke-linecap="butt"/><path d="M218.83768,196.81086c0,0 10.97428,-8.10086 14.09489,-13.80827c8.50499,-15.55513 19.2424,-19.60836 19.2424,-19.60836" fill="none" stroke="url(#color-3)" stroke-width="5" stroke-linecap="round"/></g></g></g></svg>